<?xml version="1.0" encoding="utf-8"?>
<!-- Generator: Adobe Illustrator 16.0.0, SVG Export Plug-In . SVG Version: 6.00 Build 0)  -->
<!DOCTYPE svg PUBLIC "-//W3C//DTD SVG 1.1//EN" "http://www.w3.org/Graphics/SVG/1.1/DTD/svg11.dtd">
<svg version="1.1" id="Layer_1" xmlns="http://www.w3.org/2000/svg" xmlns:xlink="http://www.w3.org/1999/xlink" x="0px" y="0px"
	 width="100px" height="100px" viewBox="0 0 100 100" enable-background="new 0 0 100 100" xml:space="preserve">
<g opacity="0.98">
	<path fill="#FDC06C" d="M50,0.003c-27.571,0-50,22.43-50,49.999c0,27.564,22.429,49.994,50,49.994c27.568,0,50-22.43,50-49.994
		c0-7.288-1.566-14.218-4.384-20.468C87.781,12.141,70.279,0.004,50,0.003z M63.968,55.289l2.509,17.477l-16.472-7.638l-16.48,7.638
		l2.508-17.477L24.002,42.626l17.365-3.555l8.512-15.88l0.11-0.234l0.014,0.014l0.007-0.014l0.11,0.234l8.507,15.88l17.369,3.555
		L63.968,55.289z"/>
</g>
<circle fill="none" stroke="#EEAC54" stroke-width="3" stroke-miterlimit="10" cx="50" cy="50" r="42.084"/>
<path fill="none" stroke="#FEDE8F" stroke-miterlimit="10" d="M86.25,17"/>
<path fill="none" stroke="#FEDE8F" stroke-miterlimit="10" d="M61.49,3.022"/>
<path fill="#FFCD53" d="M96.77,32.316"/>
<path fill="none" d="M91.125,24c0,0,0.671,0,1.5,0l0,0H91.125z"/>
<g>
	<path fill="#FFDDBB" d="M49.002,2.771c0,0,0.29-0.018,0.834-0.053c0.543-0.027,1.343-0.103,2.354-0.126
		c0.508-0.017,1.067-0.037,1.678-0.058c0.619,0.038,1.287,0.079,2.002,0.122c0.722,0.048,1.491,0.098,2.299,0.15
		c0.825,0.018,1.634,0.259,2.513,0.398c0.875,0.166,1.784,0.338,2.727,0.516c0.93,0.235,1.868,0.563,2.847,0.856
		c1.989,0.522,3.945,1.464,6.003,2.361c1.007,0.496,1.984,1.093,3,1.649c0.504,0.289,1.021,0.56,1.519,0.869
		c0.476,0.344,0.957,0.688,1.438,1.035c0.479,0.347,0.963,0.696,1.447,1.045c0.488,0.344,0.973,0.697,1.412,1.111
		c0.902,0.795,1.81,1.595,2.717,2.394c0.855,0.853,1.64,1.781,2.458,2.666c0.845,0.864,1.546,1.845,2.255,2.806
		c1.512,1.854,2.585,3.969,3.741,5.919c0.507,1.017,0.956,2.045,1.394,3.046c0.217,0.501,0.432,0.995,0.644,1.486
		c0.164,0.508,0.327,1.012,0.487,1.507c0.314,0.99,0.621,1.952,0.918,2.884c0.223,0.952,0.384,1.885,0.565,2.769
		c0.151,0.892,0.394,1.724,0.447,2.548c0.061,0.82,0.117,1.598,0.17,2.329c0.053,0.725,0.102,1.404,0.146,2.032
		c-0.018,0.631-0.031,1.208-0.045,1.732c-0.018,1.042-0.091,1.858-0.114,2.413c-0.03,0.553-0.048,0.848-0.048,0.848H96.61
		c0,0-0.062-1.172-0.17-3.223c-0.029-0.512-0.062-1.079-0.098-1.696c-0.095-0.612-0.197-1.272-0.308-1.979
		c-0.107-0.707-0.226-1.458-0.348-2.25c-0.118-0.793-0.391-1.596-0.594-2.45c-0.228-0.848-0.437-1.741-0.705-2.648
		c-0.329-0.886-0.668-1.804-1.017-2.747c-0.175-0.471-0.351-0.949-0.531-1.433c-0.226-0.463-0.453-0.931-0.685-1.405
		c-0.471-0.943-0.916-1.925-1.433-2.888c-1.159-1.854-2.263-3.832-3.729-5.601c-0.688-0.914-1.371-1.849-2.191-2.668
		c-0.796-0.838-1.554-1.723-2.385-2.532c-0.863-0.775-1.724-1.55-2.584-2.322c-0.416-0.403-0.878-0.747-1.343-1.081
		c-0.463-0.341-0.923-0.682-1.381-1.02c-0.459-0.338-0.915-0.676-1.37-1.012c-0.471-0.312-0.963-0.584-1.437-0.875
		c-0.964-0.562-1.889-1.165-2.847-1.671c-1.965-0.904-3.811-1.916-5.71-2.504c-0.934-0.328-1.835-0.68-2.723-0.962
		c-0.903-0.229-1.777-0.449-2.615-0.662c-1.666-0.491-3.242-0.665-4.629-0.881c-0.692-0.103-1.344-0.199-1.943-0.289
		c-0.608-0.031-1.168-0.06-1.672-0.086c-2.02-0.105-3.173-0.164-3.173-0.164L49.002,2.771z"/>
</g>
</svg>
