<?xml version="1.0" encoding="utf-8"?>
<!-- Generator: Adobe Illustrator 16.0.0, SVG Export Plug-In . SVG Version: 6.00 Build 0)  -->
<!DOCTYPE svg PUBLIC "-//W3C//DTD SVG 1.1//EN" "http://www.w3.org/Graphics/SVG/1.1/DTD/svg11.dtd">
<svg version="1.1" id="Layer_1" xmlns="http://www.w3.org/2000/svg" xmlns:xlink="http://www.w3.org/1999/xlink" x="0px" y="0px"
	 width="512px" height="512px" viewBox="0 0 512 512" enable-background="new 0 0 512 512" xml:space="preserve">
<g transform="translate(0.000000,512.000000) scale(0.100000,-0.100000)">
	<g>
		<path fill="#FFE787" d="M4825,3338.999C4537.001,3526,4182.001,3666,3799.003,3742.001l-155,30.996l-53.008,119.004
			c-175,390-480,800-785.996,1055.996C2720,5018.999,2575.996,5120,2560,5120c-3.999,0-41.001-22.002-81.001-47.998
			c-350-229.004-741.997-715-950-1180l-52.998-119.004l-155-30.996C937.998,3666,582.998,3526,295,3338.999
			c-122.998-80-295-213.999-295-230c0-25,42.998-176.997,81.001-286.001C198.999,2485,418.999,2129.004,698.999,1825
			C765,1752.998,807.002,1699.004,805,1690c-2.998-7.998-12.002-72.998-20-145c-60-512.998-2.998-1049.004,157.002-1465.996
			l30.996-82.002l108.003,7.002c407.998,25,961.997,206.992,1381.997,455C2510,487.002,2553.999,510,2560,510
			c5.996,0,57.002-27.002,112.998-60.996c215-127.002,517.002-260,757.002-332.002C3655.996,49.004,3925.996,0,4080,0h67.998
			l31.006,80C4317.001,442.002,4380,897.002,4350.996,1337.002c-6.992,108.994-17.998,235.996-25,282.998l-12.998,85l76.006,82.998
			c317.998,347.998,526.992,680,650,1035c37.998,109.004,80.996,261.001,80.996,286.001C5120,3125,4947.998,3258.999,4825,3338.999z
			"/>
	</g>
</g>
<g transform="translate(0.000000,512.000000) scale(0.100000,-0.100000)">
	<g>
		<path fill="#424240" d="M3057.998,2228.437c-7.002,35.996-32.998,16.992-63.994-47.012
			c-58.008-120-167.002-196.992-311.006-220.996c-192.002-30.996-377.998,59.004-457.002,220
			c-31.992,66.992-51.992,84.004-61.992,55.996c-15-37.988,61.992-170.996,130.996-226.992
			c94.004-77.012,177.002-103.008,320-102.012c155.996,1.016,250.996,39.004,345,136.016
			C3005.996,2091.426,3064.004,2199.433,3057.998,2228.437z"/>
	</g>
</g>
<g>
	<g>
		<g>
			<g>
				<circle fill="#424240" cx="190.883" cy="260.15" r="14.383"/>
			</g>
		</g>
	</g>
</g>
<g>
	<g>
		<g>
			<g>
				<circle fill="#424240" cx="331.148" cy="256.15" r="14.383"/>
			</g>
		</g>
	</g>
</g>
<g>
	<g>
		<g>
			<g>
				<circle fill="#F2F2F2" cx="196.025" cy="253.975" r="5.142"/>
			</g>
		</g>
	</g>
</g>
<g>
	<g>
		<g>
			<g>
				<circle fill="#F2F2F2" cx="336.29" cy="250.907" r="5.142"/>
			</g>
		</g>
	</g>
</g>
<g>
	<g>
		<g>
			<g>
				<ellipse fill="#FFDD99" cx="178.883" cy="287.064" rx="26.383" ry="8.5"/>
			</g>
		</g>
	</g>
</g>
<g>
	<g>
		<g>
			<g>
				<ellipse fill="#FCDB92" cx="341.432" cy="283.033" rx="26.384" ry="8.5"/>
			</g>
		</g>
	</g>
</g>
<g>
	<path fill="#FFF4C6" d="M256.893,9.211c0,0,0.561,0.303,1.569,0.931c1.013,0.628,2.509,1.54,4.339,2.795
		c1.838,1.247,4.064,2.775,6.535,4.636c2.462,1.868,5.273,3.953,8.186,6.402c1.465,1.215,3.01,2.466,4.547,3.823
		c1.533,1.366,3.119,2.777,4.748,4.229c1.652,1.433,3.229,3.023,4.894,4.602c1.653,1.586,3.334,3.22,5.011,4.913
		c1.66,1.708,3.321,3.47,5.004,5.255c0.844,0.892,1.689,1.79,2.541,2.691c0.816,0.934,1.637,1.873,2.459,2.815
		c1.637,1.896,3.312,3.782,4.946,5.719c1.65,1.922,3.181,3.959,4.78,5.938c1.561,2.01,3.138,4.006,4.668,6.027
		c1.492,2.05,2.931,4.128,4.378,6.174c2.96,4.043,5.556,8.248,8.062,12.31c0.626,1.016,1.246,2.022,1.861,3.02
		c0.618,0.994,1.231,1.978,1.76,3.002c1.095,2.021,2.164,3.998,3.206,5.923c1.021,1.932,2.014,3.812,2.974,5.629
		c0.896,1.853,1.703,3.674,2.491,5.412c1.56,3.485,2.97,6.678,4.123,9.548c1.087,2.905,1.947,5.47,2.671,7.569
		c0.736,2.093,1.238,3.766,1.612,4.891c0.352,1.134,0.537,1.739,0.537,1.739s-0.352-0.531-1.01-1.528
		c-0.636-1.005-1.614-2.457-2.761-4.341c-1.16-1.878-2.589-4.142-4.124-6.776c-1.674-2.557-3.561-5.441-5.619-8.588
		c-1.024-1.569-2.026-3.238-3.147-4.915c-1.146-1.66-2.332-3.377-3.551-5.141c-1.197-1.772-2.428-3.592-3.686-5.453
		c-1.25-1.862-2.646-3.691-3.996-5.589c-1.376-1.883-2.735-3.821-4.119-5.776c-0.676-0.989-1.416-1.943-2.159-2.901
		c-0.729-0.968-1.463-1.941-2.199-2.918c-1.467-1.957-2.966-3.912-4.422-5.911c-1.535-1.941-3.076-3.89-4.617-5.839
		c-1.541-1.948-3.012-3.953-4.604-5.848c-1.594-1.895-3.131-3.824-4.685-5.717c-3.044-3.838-6.278-7.413-9.231-11.036
		c-1.532-1.763-3.04-3.496-4.516-5.192c-1.47-1.705-2.898-3.383-4.339-4.973c-2.854-3.202-5.524-6.27-8.067-9.029
		c-2.5-2.808-4.838-5.34-6.896-7.613c-2.085-2.25-3.901-4.213-5.397-5.829C258.621,11.059,256.893,9.211,256.893,9.211z"/>
</g>
<g>
	<path fill="#FFF4C6" d="M384.078,148.517c0,0,2.042-0.014,5.591,0.28c1.774,0.144,3.919,0.383,6.375,0.71
		c2.446,0.356,5.215,0.767,8.198,1.367c1.493,0.293,3.056,0.588,4.654,0.956c1.597,0.38,3.246,0.773,4.943,1.177
		c1.707,0.383,3.417,0.912,5.186,1.398c1.766,0.492,3.562,1.021,5.382,1.585c1.812,0.581,3.645,1.208,5.5,1.842
		c0.929,0.316,1.861,0.635,2.801,0.955c0.925,0.358,1.854,0.718,2.787,1.079c1.859,0.735,3.751,1.444,5.623,2.216
		c1.881,0.752,3.718,1.631,5.584,2.443c1.846,0.855,3.69,1.71,5.53,2.562c1.813,0.905,3.596,1.86,5.372,2.784
		c3.585,1.79,6.965,3.842,10.224,5.829c0.812,0.498,1.621,0.991,2.42,1.48c0.801,0.485,1.595,0.964,2.341,1.506
		c1.509,1.05,2.985,2.078,4.423,3.078c1.422,1.016,2.806,2.005,4.143,2.961c1.304,1.007,2.532,2.022,3.716,2.988
		c2.352,1.952,4.506,3.725,6.344,5.383c1.789,1.729,3.326,3.249,4.571,4.521c1.253,1.261,2.196,2.295,2.854,2.979
		c0.645,0.701,0.986,1.074,0.986,1.074s-0.455-0.232-1.309-0.669c-0.839-0.453-2.091-1.086-3.631-1.947
		c-1.549-0.851-3.402-1.906-5.505-3.134c-2.146-1.151-4.566-2.451-7.209-3.868c-1.314-0.708-2.646-1.498-4.067-2.245
		c-1.432-0.73-2.909-1.485-4.431-2.262c-1.505-0.792-3.051-1.606-4.631-2.438c-1.576-0.834-3.234-1.602-4.894-2.429
		c-1.67-0.806-3.345-1.666-5.042-2.525c-0.843-0.444-1.718-0.839-2.596-1.236c-0.87-0.412-1.745-0.826-2.625-1.241
		c-1.754-0.836-3.531-1.655-5.291-2.531c-1.795-0.804-3.597-1.611-5.397-2.418c-1.8-0.812-3.569-1.69-5.388-2.444
		c-1.817-0.753-3.604-1.563-5.391-2.335c-3.547-1.605-7.13-2.967-10.527-4.474c-3.446-1.402-6.776-2.758-9.936-4.044
		c-3.175-1.258-6.169-2.497-8.962-3.566c-2.791-1.101-5.351-2.11-7.618-3.004c-2.283-0.891-4.272-1.667-5.912-2.307
		C385.965,149.256,384.078,148.517,384.078,148.517z"/>
</g>
</svg>
