<?xml version="1.0" encoding="utf-8"?>
<!-- Generator: Adobe Illustrator 16.0.0, SVG Export Plug-In . SVG Version: 6.00 Build 0)  -->
<!DOCTYPE svg PUBLIC "-//W3C//DTD SVG 1.1//EN" "http://www.w3.org/Graphics/SVG/1.1/DTD/svg11.dtd">
<svg version="1.1" id="Layer_1" xmlns="http://www.w3.org/2000/svg" xmlns:xlink="http://www.w3.org/1999/xlink" x="0px" y="0px"
	 width="100px" height="100px" viewBox="0 0 100 100" enable-background="new 0 0 100 100" xml:space="preserve">
<g opacity="0.98">
	<g>
		<path fill="#563C64" d="M50,0.003C22.429,0.003,0,22.433,0,50.002C0,77.567,22.429,99.996,50,99.996c27.568,0,50-22.429,50-49.994
			C100,22.433,77.568,0.003,50,0.003z M50,92.966c-23.69,0-42.967-19.277-42.967-42.964C7.033,26.312,26.311,7.038,50,7.038
			c23.688,0,42.966,19.274,42.966,42.964C92.967,73.688,73.689,92.966,50,92.966z"/>
		<path fill="#563C64" d="M76.707,39.185L60.95,35.95l-7.687-14.337l-0.069-0.151c-0.575-1.219-1.798-2.001-3.142-2.019
			c-0.017,0-0.027,0-0.041,0c-0.472,0-0.93,0.093-1.351,0.265c-0.806,0.327-1.471,0.947-1.856,1.753l-0.066,0.151L39.046,35.95
			l-15.75,3.235c-1.25,0.255-2.267,1.167-2.649,2.387s-0.076,2.549,0.806,3.479l10.854,11.423l-2.271,15.791
			c-0.179,1.274,0.348,2.546,1.385,3.32c0.62,0.459,1.357,0.693,2.101,0.693c0.5,0,1.002-0.107,1.478-0.328l15.002-6.944
			l14.99,6.944c0.476,0.221,0.978,0.328,1.48,0.328c0.744,0,1.482-0.234,2.102-0.693c1.033-0.774,1.564-2.046,1.385-3.32
			l-2.267-15.791l10.852-11.423c0.882-0.931,1.192-2.26,0.806-3.479C78.967,40.353,77.954,39.44,76.707,39.185z M63.968,55.289
			l2.508,17.477l-16.471-7.638l-16.48,7.638l2.508-17.477L24.002,42.626l17.365-3.555l8.512-15.88l0.11-0.234l0.014,0.014
			l0.007-0.014l0.11,0.234l8.507,15.88l17.369,3.555L63.968,55.289z"/>
	</g>
</g>
</svg>
